<?xml version="1.0" standalone="no"?>
<!DOCTYPE svg PUBLIC "-//W3C//DTD SVG 20010904//EN"
 "http://www.w3.org/TR/2001/REC-SVG-20010904/DTD/svg10.dtd">
<svg version="1.0" xmlns="http://www.w3.org/2000/svg"
 width="700.000000pt" height="700.000000pt" viewBox="0 0 700.000000 700.000000"
 preserveAspectRatio="xMidYMid meet">
<metadata>
Created by potrace 1.14, written by Peter Selinger 2001-2017
</metadata>
<g transform="translate(0.000000,700.000000) scale(0.100000,-0.100000)"
fill="#000000" stroke="none">
<path d="M3259 6946 c-2 -2 -42 -7 -89 -10 -72 -6 -268 -34 -348 -50 -148 -31
-436 -113 -527 -151 -16 -7 -77 -32 -135 -55 -131 -54 -335 -158 -460 -235
-87 -54 -276 -185 -325 -226 -11 -9 -54 -45 -95 -79 -268 -222 -531 -526 -722
-835 -130 -212 -261 -495 -336 -725 -36 -111 -93 -322 -105 -390 -3 -14 -8
-43 -12 -65 -12 -65 -13 -71 -20 -122 -4 -26 -9 -59 -11 -73 -20 -125 -26
-593 -10 -770 4 -52 9 -97 11 -100 2 -3 6 -30 10 -60 42 -347 201 -822 391
-1163 62 -111 227 -367 257 -399 7 -7 25 -31 42 -53 59 -80 184 -222 268 -306
464 -464 1002 -772 1622 -928 66 -16 134 -32 150 -35 73 -14 143 -25 180 -31
22 -3 51 -7 65 -10 82 -14 194 -19 425 -20 293 0 389 7 580 40 44 8 95 17 112
20 18 3 79 17 135 31 57 14 110 27 118 29 8 1 67 20 130 40 200 64 447 172
620 270 86 49 341 212 350 224 3 4 21 18 40 31 67 46 256 208 345 297 120 120
173 178 277 307 103 127 317 444 314 466 -1 3 9 19 21 36 25 35 127 246 168
349 15 39 33 84 40 100 40 97 128 403 149 520 3 17 10 55 16 85 12 69 27 173
37 270 10 96 10 551 0 655 -34 348 -137 747 -268 1044 -35 78 -149 304 -175
346 -13 22 -27 47 -31 55 -4 8 -41 67 -83 130 -331 496 -760 883 -1285 1160
-230 122 -548 241 -785 295 -166 38 -288 60 -455 81 -55 7 -590 16 -596 10z
m492 -320 c113 -10 172 -16 195 -21 12 -3 39 -7 60 -10 21 -4 73 -13 114 -21
41 -9 86 -18 100 -20 52 -10 240 -68 360 -111 123 -43 472 -207 478 -224 2 -5
8 -9 13 -9 12 0 148 -86 249 -158 172 -122 400 -329 544 -492 118 -134 297
-389 378 -540 19 -36 41 -76 49 -90 7 -14 14 -27 14 -30 1 -3 10 -23 22 -45
120 -231 247 -652 279 -925 3 -30 8 -64 10 -75 9 -45 18 -238 18 -360 0 -125
-12 -343 -18 -354 -2 -3 -7 -35 -10 -71 -4 -36 -9 -72 -11 -80 -2 -8 -6 -32
-10 -53 -10 -74 -64 -283 -100 -396 -117 -360 -308 -714 -549 -1013 -78 -97
-280 -309 -366 -383 -315 -275 -680 -485 -1070 -616 -132 -44 -300 -89 -390
-104 -19 -3 -53 -10 -75 -15 -22 -5 -62 -11 -90 -14 -27 -4 -66 -8 -85 -11
-239 -34 -679 -20 -930 30 -209 42 -424 105 -611 181 -128 52 -365 171 -454
228 -33 22 -78 51 -100 65 -50 32 -213 153 -240 178 -11 10 -37 30 -57 46 -61
45 -289 276 -370 374 -78 94 -163 207 -209 278 -14 22 -43 67 -65 100 -93 144
-224 425 -291 620 -52 154 -81 262 -112 420 -58 296 -74 726 -36 955 2 14 7
48 10 75 25 214 121 567 206 763 215 494 522 907 910 1223 515 420 1125 664
1764 705 55 4 101 7 102 8 6 5 306 -2 374 -8z"/>
<path d="M3506 4838 c-42 -24 -856 -849 -862 -874 -12 -47 3 -97 37 -126 18
-15 41 -28 53 -30 65 -10 72 -4 394 315 171 171 312 309 312 307 1 -3 2 -534
3 -1180 2 -1290 -2 -1201 63 -1236 70 -38 160 5 173 82 3 22 6 558 6 1191 l0
1153 305 -306 c168 -168 313 -310 322 -315 48 -27 148 6 163 53 13 39 14 65 5
93 -6 20 -162 182 -438 458 l-428 427 -44 0 c-25 0 -54 -6 -64 -12z m-65 -249
l0 -123 -266 -265 -267 -266 73 110 c41 61 76 112 79 115 3 3 88 129 190 281
102 153 186 276 188 274 2 -2 3 -58 3 -126z m438 -239 c90 -102 179 -203 199
-225 19 -22 49 -56 66 -75 30 -34 30 -34 2 -10 -15 14 -54 50 -86 80 -69 66
-288 272 -338 318 -30 28 -35 39 -37 83 -2 46 -1 48 14 32 9 -10 90 -101 180
-203z"/>
</g>
</svg>
